- 
http://www.Speed.Cd 
       
http://www.Speed.Cd      fast  and The Hottest Private Tracker on the net

(((--Registration will be open on june every weekend--)))

Please Seed back to make the speed Faster!!!

------------------nfo--------------------------
-Smurfs 2011 TS XViD - STUFFuALL

Video
ID                               : 0
Format                           : MPEG-4 Visual
Format profile                   : Advanced Simple@L5
Format settings, BVOP            : 2
Format settings, QPel            : No
Format settings, GMC             : No warppoints
Format settings, Matrix          : Default (H.263)
Muxing mode                      : Packed bitstream
Codec ID                         : XVID
Codec ID/Hint                    : XviD
Duration                         : 1h 32mn
Bit rate                         : 924 Kbps
Width                            : 640 pixels
Height                           : 320 pixels
Display aspect ratio             : 2.000
Frame rate                       : 25.000 fps
Color space                      : YUV
Chroma subsampling               : 4:2:0
Bit depth                        : 8 bits
Scan type                        : Progressive
Compression mode                 : Lossy
Bits/(Pixel*Frame)               : 0.181
Stream size                      : 613 MiB (87%)
Writing library                  : XviD 64

WORK DONE

spent 9+ hours on the video cut it 32 times just to get it right

play with rgb,resize,ect got it right, now on to the audio clean it up now

it like the best line you can get it come up real nice 3+ hours

to get right. this is the one and the only one you want no ones comes near

this super work we did  just outstanding i must say cant get better

NOW GREETZ TO BLOWmeCM8,BLOWmeUnevano,and anyone iv miss


VIDEO AND AUDIO : who ever great work thanks




Audio
ID                               : 1
Format                           : MPEG Audio
Format version                   : Version 1
Format profile                   : Layer 3
Mode                             : Joint stereo
Codec ID                         : 55
Codec ID/Hint                    : MP3
Duration                         : 1h 32mn
Bit rate mode                    : Constant
Bit rate                         : 128 Kbps
Channel(s)                       : 2 channels
Sampling rate                    : 44.1 KHz
Compression mode                 : Lossy
Stream size                      : 84.8 MiB (12%)
Alignment                        : Split accross interleaves
Interleave, duration             : 40 ms (1.00 video frame)
Interleave, preload duration     : 500 ms
Writing library                  : LAME3.98r
Encoding settings                : -m j -V 4 -q 2 -lowpass 17 -b 128

[IMG]http://img846.imageshack.us/img846/2126/vlcsnap2011081305h40m38.png[/IMG]
[IMG]http://img189.imageshack.us/img189/1452/vlcsnap2011081305h41m25.png[/IMG]
[IMG]http://img163.imageshack.us/img163/3488/vlcsnap2011081305h43m18.png[/IMG]
[IMG]http://img577.imageshack.us/img577/4992/vlcsnap2011081305h44m01.png[/IMG]
[IMG]http://img202.imageshack.us/img202/7450/vlcsnap2011081305h44m39.png[/IMG]
[IMG]http://img23.imageshack.us/img23/8791/vlcsnap2011081305h45m19.png[/IMG]